HIERARCHY
ROOT Pelvis
{
	OFFSET 0.000000 0.000000 0.000000
	CHANNELS 6 Xposition Yposition Zposition Zrotation Yrotation Xrotation 
	JOINT Left_hip
	{
		OFFSET 0.067986 -0.089946 -0.007639
		CHANNELS 3 Zrotation Yrotation Xrotation
		JOINT Left_knee
		{
			OFFSET 0.036308 -0.388288 -0.004016
			CHANNELS 3 Zrotation Yrotation Xrotation
			JOINT Left_ankle
			{
				OFFSET -0.012264 -0.413250 -0.042878
				CHANNELS 3 Zrotation Yrotation Xrotation
				JOINT Left_foot
				{
					OFFSET 0.024043 -0.058563 0.118570
					CHANNELS 3 Zrotation Yrotation Xrotation
					End Site
					{
						OFFSET 0.000000 0.000000 0.000000
					}
				}
			}
		}
	}
	JOINT Right_hip
	{
		OFFSET -0.065648 -0.089374 -0.003858
		CHANNELS 3 Zrotation Yrotation Xrotation
		JOINT Right_knee
		{
			OFFSET -0.042132 -0.395021 -0.006361
			CHANNELS 3 Zrotation Yrotation Xrotation
			JOINT Right_ankle
			{
				OFFSET 0.014805 -0.413264 -0.041054
				CHANNELS 3 Zrotation Yrotation Xrotation
				JOINT Right_foot
				{
					OFFSET -0.021758 -0.049013 0.121832
					CHANNELS 3 Zrotation Yrotation Xrotation
					End Site
					{
						OFFSET 0.000000 0.000000 0.000000
					}
				}
			}
		}
	}
	JOINT Spine1
	{
		OFFSET -0.002755 0.104406 -0.022277
		CHANNELS 3 Zrotation Yrotation Xrotation
		JOINT Spine2
		{
			OFFSET 0.004136 0.129393 -0.002186
			CHANNELS 3 Zrotation Yrotation Xrotation
			JOINT Spine3
			{
				OFFSET 0.001906 0.049304 0.025578
				CHANNELS 3 Zrotation Yrotation Xrotation
				JOINT Neck
				{
					OFFSET -0.004620 0.210958 -0.044063
					CHANNELS 3 Zrotation Yrotation Xrotation
					JOINT Head
					{
						OFFSET 0.003833 0.067393 0.052435
						CHANNELS 3 Zrotation Yrotation Xrotation
						End Site
						{
							OFFSET 0.000000 0.000000 0.000000
						}
					}
				}
				JOINT Left_collar
				{
					OFFSET 0.070771 0.116689 -0.037192
					CHANNELS 3 Zrotation Yrotation Xrotation
					JOINT Left_shoulder
					{
						OFFSET 0.080652 0.031596 -0.005617
						CHANNELS 3 Zrotation Yrotation Xrotation
						JOINT Left_elbow
						{
							OFFSET 0.262654 -0.015020 -0.027939
							CHANNELS 3 Zrotation Yrotation Xrotation
							JOINT Left_wrist
							{
								OFFSET 0.250438 0.010062 -0.000990
								CHANNELS 3 Zrotation Yrotation Xrotation
								JOINT Left_palm
								{
									OFFSET 0.081198 -0.010037 -0.013706
									CHANNELS 3 Zrotation Yrotation Xrotation
									End Site
									{
										OFFSET 0.000000 0.000000 0.000000
									}
								}
							}
						}
					}
				}
				JOINT Right_collar
				{
					OFFSET -0.072972 0.115556 -0.040762
					CHANNELS 3 Zrotation Yrotation Xrotation
					JOINT Right_shoulder
					{
						OFFSET -0.082917 0.031841 -0.006673
						CHANNELS 3 Zrotation Yrotation Xrotation
						JOINT Right_elbow
						{
							OFFSET -0.252882 -0.013790 -0.020410
							CHANNELS 3 Zrotation Yrotation Xrotation
							JOINT Right_wrist
							{
								OFFSET -0.255570 0.009163 -0.005138
								CHANNELS 3 Zrotation Yrotation Xrotation
								JOINT Right_palm
								{
									OFFSET -0.080804 -0.007282 -0.010415
									CHANNELS 3 Zrotation Yrotation Xrotation
									End Site
									{
										OFFSET 0.000000 0.000000 0.000000
									}
								}
							}
						}
					}
				}
			}
		}
	}
}
MOTION
Frames: 8
Frame Time: 0.100000
0.000000 0.000000 0.000000 175.229030 23.607728 -17.764907 10.191335 6.747695 9.813998 -4.577404 -14.007558 -3.145957 -8.731391 13.550709 -9.206615 4.622794 0.529320 1.426198 -8.308014 -6.713796 8.699549 5.590611 10.440326 -0.199807 13.958833 -11.781725 -9.677163 -9.976759 8.170656 2.215926 1.982942 1.569780 8.155924 0.384787 -3.176061 2.177414 0.875198 -0.125919 2.032949 -1.805924 1.878513 -0.099888 0.263020 -2.370721 -6.137271 -6.615374 0.544186 -7.449848 -0.937876 1.776887 -13.596642 1.680708 -7.215346 -8.100558 -1.810364 -7.096482 20.526630 -6.979198 -1.935715 -12.679207 7.484670 -0.027550 -5.894512 1.990947 -4.200106 -10.796595 -5.269733 8.730667 -9.544119 2.347713 2.710476 17.261901 7.808554 4.626126 -4.315617 
-0.000008 -0.000030 0.000284 175.224864 23.622656 -17.767181 10.198012 6.723208 9.824931 -4.574355 -14.011880 -3.140722 -8.731250 13.567369 -9.213918 4.604454 0.552667 1.414052 -8.297555 -6.712341 8.721057 5.593398 10.462639 -0.204310 13.957518 -11.817311 -9.692146 -9.998480 8.194162 2.192658 1.984820 1.564248 8.137315 0.369024 -3.172035 2.188722 0.876702 -0.127298 2.053101 -1.777436 1.918633 -0.090617 0.288996 -2.255679 -6.162750 -6.647750 0.554092 -7.479567 -0.991287 1.743135 -13.677926 1.726764 -7.209033 -8.341710 -1.784875 -7.071506 20.310119 -6.938016 -1.937644 -12.576595 7.447453 -0.049148 -5.907139 1.960062 -4.206949 -10.813656 -5.317479 8.726617 -9.589796 2.338008 2.702295 17.339624 7.778789 4.627494 -4.285283 
0.000049 -0.000073 0.000575 175.222265 23.626275 -17.741026 10.207970 6.720665 9.814102 -4.572050 -14.008181 -3.156988 -8.731254 13.567222 -9.210880 4.611412 0.552193 1.411778 -8.286407 -6.716061 8.714357 5.598953 10.458548 -0.217664 13.958727 -11.819809 -9.700202 -10.004069 8.196854 2.200961 1.969900 1.572032 8.117176 0.350673 -3.165366 2.159712 0.860292 -0.125934 2.046196 -1.714944 1.970333 -0.070477 0.312243 -2.189890 -6.125385 -6.689354 0.569192 -7.477784 -1.023742 1.756522 -13.661025 1.677164 -7.173791 -8.320465 -1.829666 -7.069898 20.317094 -6.938326 -1.938468 -12.594460 7.430581 -0.077022 -5.904720 1.943075 -4.203368 -10.807586 -5.305862 8.726626 -9.571000 2.370334 2.700752 17.317513 7.770538 4.622258 -4.280224 
-0.000013 -0.000100 0.000846 175.221329 23.622241 -17.726957 10.212258 6.717912 9.811182 -4.570796 -14.005331 -3.154451 -8.725720 13.571614 -9.213504 4.609180 0.551326 1.407946 -8.279470 -6.716723 8.711047 5.602746 10.461312 -0.216735 13.957055 -11.819857 -9.711605 -10.004786 8.199188 2.208357 1.962511 1.579592 8.095857 0.333876 -3.153299 2.136119 0.844737 -0.119555 2.045242 -1.690588 1.988010 -0.043283 0.315888 -2.163174 -6.085147 -6.706240 0.603078 -7.478732 -1.030027 1.781065 -13.652309 1.656770 -7.144040 -8.311582 -1.847293 -7.067557 20.324441 -6.941100 -1.938364 -12.604427 7.414870 -0.106245 -5.904523 1.917217 -4.210555 -10.808938 -5.298979 8.714012 -9.565073 2.381134 2.699818 17.308495 7.768586 4.619424 -4.277748 
-0.000205 -0.000159 0.001120 175.219819 23.629412 -17.697202 10.207713 6.717051 9.805524 -4.575051 -14.004679 -3.151683 -8.718977 13.573771 -9.216817 4.603699 0.546808 1.400597 -8.280721 -6.716461 8.703946 5.601664 10.465779 -0.209461 13.959601 -11.830930 -9.736344 -10.016439 8.213641 2.218487 1.969048 1.581604 8.060791 0.329003 -3.139765 2.088640 0.842735 -0.114268 2.036190 -1.686847 2.021704 -0.024775 0.295412 -2.120210 -6.038278 -6.705977 0.632194 -7.478720 -0.999253 1.804107 -13.640533 1.640364 -7.121897 -8.299596 -1.842882 -7.074775 20.345049 -6.951379 -1.940898 -12.620967 7.409675 -0.131391 -5.903744 1.867849 -4.218158 -10.810763 -5.277254 8.695021 -9.567211 2.366735 2.708926 17.303342 7.773487 4.616456 -4.277583 
-0.000500 -0.000233 0.001619 175.215503 23.636696 -17.670236 10.205511 6.717021 9.809228 -4.578949 -14.003726 -3.145296 -8.716323 13.573830 -9.225632 4.601997 0.542882 1.401790 -8.286898 -6.718486 8.717324 5.599712 10.466055 -0.213519 13.965174 -11.836511 -9.747828 -10.025708 8.224339 2.226284 1.971953 1.585063 8.028920 0.333757 -3.133536 2.048918 0.848691 -0.110184 2.013315 -1.675910 2.046519 -0.026331 0.287882 -2.096312 -6.015155 -6.718883 0.621002 -7.476252 -0.983049 1.804207 -13.627125 1.621717 -7.121330 -8.280473 -1.845173 -7.080883 20.374081 -6.962477 -1.944717 -12.638488 7.426539 -0.119003 -5.902838 1.847517 -4.207618 -10.812594 -5.253912 8.685167 -9.568859 2.363928 2.714309 17.300078 7.779705 4.615950 -4.280867 
-0.000783 -0.000316 0.002334 175.214970 23.625194 -17.611200 10.205998 6.721113 9.805873 -4.584150 -13.990363 -3.144804 -8.693212 13.573290 -9.276441 4.586503 0.534026 1.416841 -8.286039 -6.718530 8.722522 5.599531 10.471100 -0.238392 13.974485 -11.842220 -9.805166 -10.040716 8.266090 2.273377 1.960528 1.581280 7.955534 0.342507 -3.130384 1.965495 0.851860 -0.115405 1.976799 -1.605066 2.125243 0.014731 0.257313 -2.028106 -5.864891 -6.828136 0.573558 -7.463790 -0.950645 1.797882 -13.563290 1.577895 -7.165291 -8.195825 -1.796555 -7.114542 20.516976 -7.029292 -1.971650 -12.722419 7.531996 -0.068162 -5.887984 1.765760 -4.159370 -10.808801 -5.198020 8.670750 -9.581787 2.297501 2.753655 17.305843 7.823272 4.622914 -4.305508 
-0.000979 -0.000428 0.003092 175.190794 23.609024 -17.552699 10.227720 6.697820 9.752997 -4.607607 -13.943252 -3.032613 -8.648456 13.548695 -9.402320 4.581425 0.577773 1.427580 -8.253215 -6.711932 8.727397 5.605002 10.452411 -0.248205 13.978664 -11.816984 -9.907320 -10.077465 8.305638 2.353982 1.913378 1.568539 7.893366 0.361064 -3.111711 1.914246 0.869438 -0.128440 1.938258 -1.407683 2.129335 -0.053316 0.282003 -1.997572 -5.696810 -7.132765 0.636246 -7.386748 -1.028023 1.860375 -13.384118 1.930955 -7.910789 -8.131512 -1.584328 -7.187364 20.544442 -7.192818 -2.052529 -12.834757 7.781480 -0.055233 -5.822251 1.695253 -4.207329 -10.778729 -5.374500 8.946136 -9.795070 2.056668 2.846949 17.225409 7.970927 4.658031 -4.369016 
